<svg viewBox="0 0 640 400" data-background-color="#ed2647" preserveAspectRatio="xMidYMid meet" height="400" width="640" xmlns="http://www.w3.org/2000/svg" xmlns:xlink="http://www.w3.org/1999/xlink"><rect width="640" height="400" x="0" y="0" opacity="1" fill="#ed2647" data-fill-palette-color="background" id="background"></rect><g id="tight-bounds" transform="matrix(1,0,0,1,122.24000000000001,76.4)"><svg viewBox="0 0 395.52 247.2" height="247.2" width="395.52"><g><svg></svg></g><g><svg viewBox="0 0 395.52 247.2" height="247.2" width="395.52"><g><g><path xmlns="http://www.w3.org/2000/svg" d="M282.47 207.648c-5.606 8.72-14.767 16.714-27.484 23.98-8.564 5.191-18.556 9.083-29.976 11.679-11.419 2.595-22.968 3.893-34.647 3.893-11.938 0-26.731-3.893-44.379-11.679-12.717-6.229-22.761-13.625-30.131-22.189-7.422-8.564-11.134-17.907-11.134-28.029 0-7.007 1.557-12.146 4.672-15.416 3.114-3.218 8.175-4.827 15.182-4.827 3.633 0 7.397 1.479 11.29 4.437 3.893 3.011 6.229 5.943 7.007 8.798 3.633 10.641 9.992 18.738 19.075 24.292 9.083 5.606 20.373 8.409 33.869 8.409 15.572 0 28.626-2.855 39.162-8.565 10.485-5.71 15.727-13.366 15.728-22.968 0-6.1-2.434-11.758-7.303-16.973h46.306c0.729 4.232 1.093 8.852 1.094 13.859 0 12.198-2.777 22.631-8.331 31.299zM112.116 66.569c0-10.122 3.504-20.451 10.511-30.988 7.007-10.485 15.312-18.063 24.914-22.734 5.191-2.595 14.092-5.398 26.706-8.409 12.561-2.959 21.697-4.438 27.406-4.438 7.526 0 15.831 0.908 24.915 2.725 9.083 1.817 16.48 4.412 22.189 7.786 11.419 6.488 19.854 12.328 25.304 17.518 5.45 5.191 8.175 11.679 8.175 19.465 0 4.671-1.739 8.824-5.216 12.457-3.53 3.633-9.577 5.45-18.141 5.45-2.076 0-4.152-0.908-6.229-2.725-2.076-1.817-4.671-4.542-7.786-8.175-4.152-5.45-8.175-9.083-12.068-10.9-3.893-1.298-9.525-2.725-16.895-4.283-7.422-1.557-13.989-2.336-19.698-2.335-6.229 0-12.717 1.298-19.465 3.893-6.748 2.595-12.405 6.281-16.973 11.055-4.516 4.827-6.774 10.355-6.773 16.584 0 5.191 2.414 9.654 7.24 13.392 1.239 0.983 2.545 1.918 3.917 2.803l-48.742 0c-2.194-5.878-3.291-11.925-3.291-18.141z" fill="#ffffff" fill-rule="nonzero" stroke="none" stroke-width="1" stroke-linecap="butt" stroke-linejoin="miter" stroke-miterlimit="10" stroke-dasharray="" stroke-dashoffset="0" font-family="none" font-weight="none" font-size="none" text-anchor="none" style="mix-blend-mode: normal" data-fill-palette-color="tertiary"></path></g></g><g transform="matrix(1,0,0,1,0,94.61322277321948)"><svg viewBox="0 0 395.52 57.97355445356103" height="57.97355445356103" width="395.52"><g><svg viewBox="0 0 527.2600308119202 77.2834195678123" height="57.97355445356103" width="395.52"><g transform="matrix(1,0,0,1,131.74003081192024,10.680993587157854)"><svg viewBox="0 0 395.52 55.921432393496595" height="55.921432393496595" width="395.52"><g id="textblocktransform"><svg viewBox="0 0 395.52 55.921432393496595" height="55.921432393496595" width="395.52" id="textblock"><g><svg viewBox="0 0 395.52 55.921432393496595" height="55.921432393496595" width="395.52"><g transform="matrix(1,0,0,1,0,0)"><svg width="395.52" viewBox="2.25 -33.70000076293945 242.92999267578125 34.35000228881836" height="55.921432393496595" data-palette-color="#ffffff"><path d="M16.65-11.25Q17.05-11 18.23-10.33 19.4-9.65 19.8-8.75 20.2-7.85 20.2-6.25L20.2-6.25Q20.2-4.45 19.15-3.08 18.1-1.7 16.45-0.95L16.45-0.95Q15.25-0.4 13.53-0.1 11.8 0.2 10.8 0.2L10.8 0.2Q9.8 0.2 8.22-0.1 6.65-0.4 6.05-0.65L6.05-0.65Q4.5-1.55 3.38-2.85 2.25-4.15 2.25-5.5L2.25-5.5Q2.25-6.5 2.9-7.08 3.55-7.65 4.6-7.65L4.6-7.65Q5.1-7.65 5.65-7.28 6.2-6.9 6.4-6.5L6.4-6.5Q6.95-5.2 8.25-4.55 9.55-3.9 10.9-3.9L10.9-3.9Q12.65-3.9 14.15-4.48 15.65-5.05 15.65-6.05L15.65-6.05Q15.65-6.5 15.43-6.78 15.2-7.05 14.8-7.35L14.8-7.35Q14.1-7.85 12.7-8.18 11.3-8.5 10.9-8.6L10.9-8.6Q8.85-9.05 6.9-9.95L6.9-9.95Q4.95-10.9 3.8-12.2 2.65-13.5 2.65-15.55L2.65-15.55Q2.65-16.9 3.65-18.38 4.65-19.85 5.9-20.45L5.9-20.45Q6.8-20.8 8.93-21.2 11.05-21.6 11.8-21.6L11.8-21.6Q12.95-21.6 14.3-21.38 15.65-21.15 16.35-20.65L16.35-20.65Q17.7-19.85 18.55-18.98 19.4-18.1 19.4-17L19.4-17Q19.4-16.45 19.15-15.83 18.9-15.2 18.55-15.05L18.55-15.05Q17.8-14.7 16.8-14.7L16.8-14.7Q16.35-14.7 16.07-14.95 15.8-15.2 15.35-15.75L15.35-15.75Q14.8-16.6 14.3-16.75L14.3-16.75Q13.7-16.9 12.55-17.13 11.4-17.35 11-17.35L11-17.35Q9.85-17.35 8.63-16.7 7.4-16.05 7.4-15.2L7.4-15.2Q7.4-14.75 7.78-14.5 8.15-14.25 8.58-14.05 9-13.85 9.15-13.8L9.15-13.8Q10.2-13.3 11.48-12.95 12.75-12.6 13.05-12.5L13.05-12.5Q15.75-11.85 16.65-11.25L16.65-11.25ZM44.7-16.05Q45.1-15.35 45.35-14.03 45.6-12.7 45.6-11.65L45.6-11.65Q45.6-9.7 44.75-6.1L44.75-6.1Q41.3 0.2 34.55 0.2L34.55 0.2Q32.05 0.2 29.45-1.45 26.85-3.1 25.85-5.25L25.85-5.25Q24.5-9.55 24.5-10.7L24.5-10.7Q24.5-12.7 25.37-14.95 26.25-17.2 27.6-18.85L27.6-18.85Q28.45-20 30.65-20.83 32.85-21.65 34.65-21.65L34.65-21.65Q38.15-21.65 40.6-20.33 43.05-19 44.7-16.05L44.7-16.05ZM40.35-8Q40.6-8.65 40.6-11.35L40.6-11.35Q40.6-12.8 40.07-14.2 39.55-15.6 38.55-16.6L38.55-16.6Q38.45-16.7 38-16.93 37.55-17.15 36.77-17.38 36-17.6 35-17.6L35-17.6Q32.2-17.6 30.9-15.35 29.6-13.1 29.6-10.25L29.6-10.25Q29.6-9.75 29.87-8.35 30.15-6.95 30.35-6.6L30.35-6.6Q30.5-6.25 31.12-5.63 31.75-5 32.67-4.53 33.6-4.05 34.6-4.05L34.6-4.05Q36.85-4.05 38.2-5.13 39.55-6.2 40.35-8L40.35-8ZM73.3-3.85Q73.55-3.75 74.09-3.6 74.64-3.45 74.89-3.3 75.14-3.15 75.14-2.85L75.14-2.85Q75.19-1.65 74.27-0.88 73.34-0.1 72.09-0.1L72.09-0.1Q70.14-0.1 69.05-1.15 67.94-2.2 67.44-4.35L67.44-4.35Q67.25-5.2 67.25-6.7L67.25-6.7Q67.25-7.55 67.34-9.45L67.34-9.45Q67.44-11.45 67.44-12.65L67.44-12.65Q67.44-14.4 66.47-15.73 65.5-17.05 63.74-17.05L63.74-17.05Q62.7-17.05 61.55-16.43 60.39-15.8 59.95-14.9L59.95-14.9Q59.2-13.45 58.89-11.75L58.89-11.75Q58.34-8.75 58.34-5.5L58.34-5.5Q58.34-3.95 58.39-3.1L58.39-3.1Q58.39-2.9 58.42-2.33 58.45-1.75 58.32-1.28 58.2-0.8 57.89-0.4L57.89-0.4Q57.64-0.15 57.12 0.03 56.59 0.2 56.14 0.2L56.14 0.2Q55.45 0.2 54.39-0.4 53.34-1 53.2-1.75L53.2-1.75 53.14-2.6Q53.14-3.05 53.24-3.65L53.24-3.65Q53.84-7.15 53.84-9.75L53.84-9.75Q53.84-10.9 53.8-11.55L53.8-11.55 53.74-13.9Q53.74-15.1 53.14-16.23 52.55-17.35 51.74-17.35L51.74-17.35Q51.49-17.35 51.05-17.18 50.59-17 50.3-17L50.3-17Q49.8-17 49.22-17.5 48.64-18 48.64-18.55L48.64-18.55Q48.64-19.6 49.34-20.25L49.34-20.25Q50.09-20.85 50.82-21.2 51.55-21.55 52.49-21.55L52.49-21.55Q53.3-21.55 53.8-21.4 54.3-21.25 55.14-20.75L55.14-20.75Q55.59-20.5 56.2-19.65 56.8-18.8 57.2-17.25L57.2-17.25Q58.49-19.65 60.42-20.63 62.34-21.6 65.34-21.6L65.34-21.6Q66.5-21.6 67.82-20.85 69.14-20.1 70.09-19.1L70.09-19.1Q71-18 71.59-16.38 72.19-14.75 72.19-13.45L72.19-13.45Q72.19-12.7 72.09-11L72.09-11Q71.94-9.65 71.94-8.15L71.94-8.15Q71.94-4.65 73.3-3.85L73.3-3.85ZM81.14-17.1L78.74-17.3Q78.04-17.4 77.62-17.9 77.19-18.4 77.19-19.1L77.19-19.1Q77.19-19.45 77.37-19.85 77.54-20.25 77.89-20.55L77.89-20.55Q78.54-21.2 81.39-21.2L81.39-21.2Q81.79-23.15 81.79-25.15L81.79-25.15Q81.79-25.9 81.74-26.45 81.69-27 81.69-27.3L81.69-27.3Q81.69-28.4 82.52-28.95 83.34-29.5 84.39-29.5L84.39-29.5Q85.69-29.5 86.17-28.85 86.64-28.2 86.64-26.45L86.64-26.45Q86.64-23.85 86.19-21.35L86.19-21.35Q86.99-21.35 88.39-21.45L88.39-21.45Q90.29-21.55 91.14-21.55L91.14-21.55Q91.99-21.55 92.62-21.13 93.24-20.7 93.24-19.95L93.24-19.95Q93.24-18 91.49-17.65L91.49-17.65Q89.64-17.2 85.74-17.1L85.74-17.1Q85.59-15.15 85.59-12.85L85.59-12.85Q85.59-9.25 86.04-6.95L86.04-6.95Q86.34-5.35 87.07-4.63 87.79-3.9 89.24-3.9L89.24-3.9Q90.09-3.9 90.99-4.35L90.99-4.35Q91.59-4.7 92.09-4.7L92.09-4.7Q92.79-4.7 93.12-4.25 93.44-3.8 93.44-3.05L93.44-3.05Q93.44-1.65 91.94-0.73 90.44 0.2 88.09 0.2L88.09 0.2Q86.64 0.2 85.17-0.5 83.69-1.2 82.69-2.25L82.69-2.25Q82.54-2.4 82.14-3.4 81.74-4.4 81.44-5.55L81.44-5.55Q80.94-7.9 80.94-12.15L80.94-12.15Q80.94-14 81.14-17.1L81.14-17.1ZM100.09-32.1Q101.84-31.95 103.14-31.18 104.44-30.4 104.44-28.85L104.44-28.85Q104.44-27.7 103.36-27.03 102.29-26.35 100.79-26.35L100.79-26.35Q99.34-26.35 98.79-27.1 98.24-27.85 98.24-28.65L98.24-28.65Q98.24-30.15 98.56-31.15 98.89-32.15 100.09-32.1L100.09-32.1ZM104.09-18.95L104.09-9.95 104.09-8.5Q104.09-6.55 104.22-4.83 104.34-3.1 104.54-1.35L104.54-1.35Q104.49-0.85 103.79-0.33 103.09 0.2 102.54 0.2L102.54 0.2Q101.59 0.2 100.61-0.18 99.64-0.55 99.44-1.1L99.44-1.1Q99.14-2.7 99.14-3.95L99.14-3.95Q99.14-8.05 98.89-13.15L98.89-13.15Q98.69-17.65 98.69-19.45L98.69-19.45Q98.69-20.35 99.59-21 100.49-21.65 101.49-21.65L101.49-21.65Q102.94-21.65 103.52-21 104.09-20.35 104.09-18.95L104.09-18.95ZM109.94-10.6Q109.94-12.5 110.64-14.43 111.34-16.35 112.49-17.95L112.49-17.95Q113.64-19.55 116.14-20.58 118.64-21.6 120.59-21.6L120.59-21.6Q122.59-21.6 124.66-21.05 126.74-20.5 127.54-19.35L127.54-19.35Q129.39-16.75 129.39-14.25L129.39-14.25Q129.39-12.9 128.81-11.95 128.24-11 127.19-9.9L127.19-9.9Q126.34-9 124.51-8.7 122.69-8.4 120.89-8.4L120.89-8.4Q119.74-8.4 118.09-8.63 116.44-8.85 114.89-9.2L114.89-9.2Q114.99-8.2 115.39-7.25 115.79-6.3 116.34-5.8L116.34-5.8Q117.34-4.85 118.41-4.6 119.49-4.35 121.19-4.35L121.19-4.35Q122.99-4.35 124.54-4.95L124.54-4.95Q125.79-5.4 126.59-5.4L126.59-5.4Q127.54-5.4 128.04-4.83 128.54-4.25 128.54-3.35L128.54-3.35Q128.54-2.1 127.09-1.3 125.64-0.5 123.76-0.13 121.89 0.25 120.74 0.25L120.74 0.25Q118.39 0.25 116.19-0.6 113.99-1.45 112.54-3L112.54-3Q111.34-4.4 110.64-6.38 109.94-8.35 109.94-10.6L109.94-10.6ZM120.84-17.35Q119.74-17.35 118.64-16.93 117.54-16.5 116.84-15.75L116.84-15.75Q115.94-14.8 115.61-14.23 115.29-13.65 115.19-12.65L115.19-12.65Q116.44-12.25 120.39-12.25L120.39-12.25Q122.54-12.25 123.71-12.9 124.89-13.55 124.89-14.6L124.89-14.6Q124.89-15.65 123.59-16.5 122.29-17.35 120.84-17.35L120.84-17.35ZM133.23-16.85Q132.84-16.85 132.51-17.18 132.19-17.5 132.19-17.95L132.19-17.95Q132.19-19.1 133.19-20.1L133.19-20.1Q133.48-20.25 134.38-20.6 135.28-20.95 135.98-20.95L135.98-20.95Q137.88-20.95 139.09-19.93 140.28-18.9 140.28-17L140.28-17Q140.28-16.45 140.09-14.65L140.09-14.65Q139.88-12.55 139.88-11.4L139.88-11.4Q139.88-7.9 140.84-5.75L140.84-5.75Q141.19-5.05 141.94-4.65 142.69-4.25 143.28-4.25L143.28-4.25Q144.73-4.25 145.63-4.75 146.53-5.25 147.59-6.35L147.59-6.35Q148.63-7.45 148.96-8.85 149.28-10.25 149.44-12.7L149.44-12.7Q149.53-14.3 149.63-15.05L149.63-15.05Q149.88-17.45 149.88-19.15L149.88-19.15Q149.88-20.25 150.48-20.98 151.09-21.7 152.13-21.7L152.13-21.7Q152.74-21.7 153.51-21.33 154.28-20.95 154.53-20.45L154.53-20.45Q154.84-19.95 154.84-18.8L154.84-18.8Q154.84-18.2 154.69-17.65L154.69-17.65Q154.34-16.4 154.34-14.65L154.34-14.65 154.38-12.05Q154.38-8.5 154.88-6.8L154.88-6.8Q155.13-6 155.59-5.18 156.03-4.35 156.44-3.8L156.44-3.8Q157.44-2.7 157.74-2.27 158.03-1.85 158.03-1.45L158.03-1.45Q158.03-0.85 157.46-0.33 156.88 0.2 156.24 0.2L156.24 0.2Q154.38 0.2 153.03-1.05 151.69-2.3 151.03-4.3L151.03-4.3Q149.34-2.35 147.88-1.15L147.88-1.15Q146.88-0.45 145.44-0.13 143.98 0.2 142.53 0.2L142.53 0.2Q140.59 0.2 138.59-1.4 136.59-3 135.88-5.1L135.88-5.1Q135.84-5.2 135.61-5.9 135.38-6.6 135.38-8L135.38-8Q135.38-9.85 135.59-12.65L135.59-12.65Q135.73-14.45 135.73-15.95L135.73-15.95Q135.73-16.4 135.41-16.7 135.09-17 134.69-17L134.69-17Q134.38-17 134.01-16.93 133.63-16.85 133.23-16.85L133.23-16.85ZM168.78-2.75Q168.78-1.5 167.78-0.43 166.78 0.65 165.58 0.65L165.58 0.65Q164.18 0.65 163.03-0.13 161.88-0.9 161.88-2.1L161.88-2.1Q161.88-4 162.61-4.9 163.33-5.8 164.78-5.8L164.78-5.8Q166.48-5.8 167.63-4.98 168.78-4.15 168.78-2.75L168.78-2.75ZM194.08-31.3Q194.08-30.8 193.83-28.55L193.83-28.55Q193.28-23.05 193.28-17.4L193.28-17.4Q193.28-12.45 193.43-9.85 193.58-7.25 194.18-5.88 194.78-4.5 196.03-4.5L196.03-4.5Q198.43-4.5 198.43-2.9L198.43-2.9Q198.43-1.85 197.38-1.13 196.33-0.4 195.08-0.4L195.08-0.4Q193.58-0.4 192.28-1.1 190.98-1.8 190.23-3.25L190.23-3.25Q189.18-1.7 187.21-0.78 185.23 0.15 183.38 0.15L183.38 0.15Q180.53 0.15 178.33-1.05 176.13-2.25 174.93-4.33 173.73-6.4 173.73-8.9L173.73-8.9Q173.73-11.3 174.31-13.53 174.88-15.75 175.88-17.2L175.88-17.2Q177.23-19.1 179.51-20.23 181.78-21.35 183.98-21.35L183.98-21.35Q185.33-21.35 186.53-20.83 187.73-20.3 188.63-19.55L188.63-19.55Q188.63-22.9 188.58-23.75L188.58-23.75 188.58-24.8Q188.58-29.45 189.18-31.6L189.18-31.6Q189.73-33.7 191.83-33.7L191.83-33.7Q192.98-33.7 193.53-33.2 194.08-32.7 194.08-31.3L194.08-31.3ZM178.68-9Q178.68-6.7 180.01-5.3 181.33-3.9 183.18-3.9L183.18-3.9Q185.83-3.9 187.11-5.55 188.38-7.2 188.38-9.8L188.38-9.8 188.33-14.75Q186.38-16.9 184.28-16.9L184.28-16.9Q182.83-16.9 181.56-16.18 180.28-15.45 179.53-14L179.53-14Q178.68-12.35 178.68-9L178.68-9ZM201.33-10.6Q201.33-12.5 202.03-14.43 202.73-16.35 203.88-17.95L203.88-17.95Q205.03-19.55 207.53-20.58 210.03-21.6 211.98-21.6L211.98-21.6Q213.98-21.6 216.05-21.05 218.13-20.5 218.93-19.35L218.93-19.35Q220.78-16.75 220.78-14.25L220.78-14.25Q220.78-12.9 220.2-11.95 219.63-11 218.58-9.9L218.58-9.9Q217.73-9 215.9-8.7 214.08-8.4 212.28-8.4L212.28-8.4Q211.13-8.4 209.48-8.63 207.83-8.85 206.28-9.2L206.28-9.2Q206.38-8.2 206.78-7.25 207.18-6.3 207.73-5.8L207.73-5.8Q208.73-4.85 209.8-4.6 210.88-4.35 212.58-4.35L212.58-4.35Q214.38-4.35 215.93-4.95L215.93-4.95Q217.18-5.4 217.98-5.4L217.98-5.4Q218.93-5.4 219.43-4.83 219.93-4.25 219.93-3.35L219.93-3.35Q219.93-2.1 218.48-1.3 217.03-0.5 215.15-0.13 213.28 0.25 212.13 0.25L212.13 0.25Q209.78 0.25 207.58-0.6 205.38-1.45 203.93-3L203.93-3Q202.73-4.4 202.03-6.38 201.33-8.35 201.33-10.6L201.33-10.6ZM212.23-17.35Q211.13-17.35 210.03-16.93 208.93-16.5 208.23-15.75L208.23-15.75Q207.33-14.8 207-14.23 206.68-13.65 206.58-12.65L206.58-12.65Q207.83-12.25 211.78-12.25L211.78-12.25Q213.93-12.25 215.1-12.9 216.28-13.55 216.28-14.6L216.28-14.6Q216.28-15.65 214.98-16.5 213.68-17.35 212.23-17.35L212.23-17.35ZM237.18-12.85Q237.33-13.25 238.25-15.75 239.18-18.25 239.98-19.55L239.98-19.55Q241.28-21.6 242.28-21.6L242.28-21.6Q243.68-21.6 244.43-21.08 245.18-20.55 245.18-19.6L245.18-19.6Q245.18-19.15 244.8-18.35 244.43-17.55 244.38-17.4L244.38-17.4Q242.38-13 240.78-7.95L240.78-7.95 239.73-4.05Q239.13-2.15 237.68-0.98 236.23 0.2 234.28 0.2L234.28 0.2Q232.53 0.2 231.03-1.4L231.03-1.4Q230.13-2.8 229.15-4.95 228.18-7.1 227.48-9.15L227.48-9.15 225.73-14.4Q225.18-15.95 224.85-17.05 224.53-18.15 224.53-19.05L224.53-19.05Q224.48-20.1 225.13-20.75 225.78-21.4 226.93-21.4L226.93-21.4Q228.23-21.4 228.78-20.88 229.33-20.35 229.78-19.25L229.78-19.25Q229.98-18.1 230.88-14.55L230.88-14.55 231.23-13.15Q231.68-11.45 232.38-9.7 233.08-7.95 233.78-6.35L233.78-6.35Q233.68-6.6 234.48-4.7L234.48-4.7Q234.98-6.15 235.63-8.25L235.63-8.25 237.18-12.85Z" opacity="1" transform="matrix(1,0,0,1,0,0)" fill="#ffffff" class="wordmark-text-0" data-fill-palette-color="primary" id="text-0"></path></svg></g></svg></g></svg></g></svg></g><g><svg viewBox="0 0 118.53832273819313 77.2834195678123" height="77.2834195678123" width="118.53832273819313"><g><svg xmlns:x="http://ns.adobe.com/Extensibility/1.0/" xmlns:i="http://ns.adobe.com/AdobeIllustrator/10.0/" xmlns:graph="http://ns.adobe.com/Graphs/1.0/" xmlns="http://www.w3.org/2000/svg" xmlns:xlink="http://www.w3.org/1999/xlink" xmlns:a="http://ns.adobe.com/AdobeSVGViewerExtensions/3.0/" version="1.1" x="0" y="0" viewBox="0 17.40189552307129 100 65.19699096679688" enable-background="new 0 0 100 100" xml:space="preserve" height="77.2834195678123" width="118.53832273819313" class="icon-icon-0" data-fill-palette-color="accent" id="icon-0"><path d="M70.79 38.18l5.458-9.459-14.893-8.599c-9.7-5.599-22.125-2.279-27.729 7.43l3.25 1.877c2.583-4.484 8.317-6.02 12.804-3.432l4.867 2.808-11.725 20.31L41.2 48.181 26.199 74.158c-1.552 2.691-0.634 6.133 2.057 7.684 2.697 1.558 6.136 0.633 7.688-2.061l14.995-25.976-1.617-0.937 11.724-20.31L70.79 38.18z" fill="#ffffff" data-fill-palette-color="accent"></path><path d="M20.633 63.435c-0.473 0-0.95-0.12-1.384-0.369L1.389 52.754C0.527 52.257 0 51.34 0 50.347s0.527-1.91 1.389-2.406l17.86-10.311c1.324-0.767 3.023-0.312 3.792 1.017 0.771 1.329 0.315 3.027-1.015 3.794L8.333 50.347l13.693 7.906c1.33 0.765 1.785 2.463 1.015 3.792C22.526 62.938 21.592 63.435 20.633 63.435z" fill="#ffffff" data-fill-palette-color="accent"></path><path d="M79.361 66.212c-0.959 0-1.893-0.497-2.408-1.389-0.765-1.329-0.31-3.028 1.02-3.792l13.694-7.906L77.973 45.22c-1.329-0.768-1.784-2.466-1.02-3.794 0.771-1.329 2.468-1.784 3.797-1.017l17.861 10.311c0.857 0.497 1.389 1.414 1.389 2.406s-0.531 1.91-1.389 2.405L80.75 65.843C80.312 66.093 79.834 66.212 79.361 66.212z" fill="#ffffff" data-fill-palette-color="accent"></path></svg></g></svg></g></svg></g></svg></g></svg></g><defs></defs></svg><rect width="395.52" height="247.2" fill="none" stroke="none" visibility="hidden"></rect></g></svg>